<svg width="24" height="24" viewBox="0 0 24 24" fill="none" xmlns="http://www.w3.org/2000/svg">
<path fill-rule="evenodd" clip-rule="evenodd" d="M9.5012 3.99859L3.83261 8.53347C2.70105 9.43871 2.14758 10.8852 2.38581 12.3145L3.44292 18.6572C3.76438 20.5859 5.43314 21.9996 7.38849 21.9996H16.6115C18.5668 21.9996 20.2356 20.5859 20.5571 18.6572L21.6142 12.3145C21.8524 10.8852 21.2989 9.43872 20.1674 8.53347L14.4988 3.9986C13.0379 2.8299 10.9621 2.82989 9.5012 3.99859ZM10.9398 15.845L10.2148 16.86C9.59927 17.7218 10.2153 18.9188 11.2743 18.9188H12.7243C13.7833 18.9188 14.3993 17.7218 13.7838 16.86L13.0588 15.845C12.5395 15.1181 11.4591 15.1181 10.9398 15.845Z" fill="#363538"/>
</svg>
